<svg width="25" height="26" viewBox="0 0 25 26" fill="none" xmlns="http://www.w3.org/2000/svg">
<g clip-path="url(#clip0)">
<path d="M24.9196 7.94165C24.8626 6.61686 24.6489 5.70518 24.3402 4.91221C24.022 4.07176 23.5375 3.32152 22.8964 2.69949C22.2742 2.06321 21.5144 1.57413 20.688 1.26074C19.8949 0.952097 18.9878 0.738422 17.658 0.681442C16.3234 0.619714 15.896 0.605469 12.5098 0.605469C9.11884 0.605469 8.69616 0.619714 7.36637 0.676694C6.04133 0.733674 5.12948 0.952097 4.33636 1.25599C3.49099 1.57413 2.74061 2.06321 2.11371 2.69949C1.48206 3.32627 0.988144 4.08125 0.679443 4.91221C0.370742 5.70518 0.157027 6.61212 0.100036 7.94165C0.0382956 9.27593 0.0240479 9.70328 0.0240479 13.0936C0.0240479 16.4839 0.0382956 16.9065 0.0952865 18.236C0.152277 19.5608 0.370742 20.4725 0.674694 21.2655C0.992893 22.1059 1.48206 22.8562 2.11846 23.4782C2.74061 24.1097 3.50049 24.6036 4.32686 24.917C5.11998 25.2256 6.02709 25.4393 7.35687 25.4963C8.68666 25.5532 9.11409 25.5675 12.5003 25.5675C15.8913 25.5675 16.3139 25.5532 17.6437 25.4963C18.9688 25.4393 19.8806 25.2256 20.6737 24.917C22.3502 24.2664 23.68 22.9417 24.3259 21.2655C24.6346 20.4725 24.8483 19.5656 24.9053 18.236C24.9623 16.9065 24.9766 16.4792 24.9766 13.0936C24.9813 9.69854 24.9766 9.27593 24.9196 7.94165ZM22.6684 18.1363C22.6162 19.3567 22.412 20.0119 22.241 20.4535C21.8231 21.5409 20.9587 22.4051 19.8711 22.8229C19.4342 22.9939 18.7693 23.1981 17.5535 23.2503C16.238 23.3073 15.8438 23.3215 12.5098 23.3215C9.18058 23.3215 8.7769 23.3073 7.46611 23.2503C6.24555 23.1981 5.59016 22.9939 5.14848 22.8229C4.60706 22.6235 4.11314 22.3054 3.71421 21.8923C3.30102 21.4887 2.98282 20.9996 2.78336 20.4583C2.61238 20.0214 2.40817 19.3567 2.35592 18.1411C2.29418 16.8258 2.27994 16.4269 2.27994 13.0983C2.27994 9.76976 2.29418 9.36615 2.35118 8.05561C2.40342 6.83529 2.60763 6.18002 2.77861 5.73842C2.97807 5.19711 3.29627 4.70328 3.71421 4.30442C4.11789 3.89132 4.60706 3.57318 5.14848 3.37375C5.58541 3.20281 6.2503 2.99863 7.46611 2.9464C8.78165 2.88942 9.17583 2.87517 12.5098 2.87517C15.8438 2.87517 16.2427 2.88942 17.5535 2.9464C18.774 2.99863 19.4294 3.20281 19.8711 3.37375C20.4125 3.57318 20.9065 3.89132 21.3054 4.30442C21.7186 4.70803 22.0368 5.19711 22.2362 5.73842C22.4072 6.17527 22.6114 6.84004 22.6637 8.05561C22.7207 9.3709 22.7349 9.76501 22.7349 13.0983C22.7397 16.4269 22.7254 16.821 22.6684 18.1363Z" fill="white"/>
<path d="M12.5 25.5857C9.14229 25.5857 8.69586 25.5714 7.35182 25.5145C6.15976 25.4575 5.22416 25.2771 4.31706 24.9304C3.49069 24.6218 2.72606 24.1185 2.09916 23.4869C1.45802 22.8554 0.968845 22.1052 0.650646 21.2647C0.299202 20.3673 0.12348 19.4318 0.0712386 18.2305C0.0142477 16.8867 0 16.4404 0 13.0881C0 9.712 0.0142477 9.2704 0.0759878 7.93612C0.132979 6.74429 0.308701 5.80887 0.660144 4.90193C0.968845 4.07572 1.47226 3.31124 2.10391 2.68921C2.73081 2.04818 3.47644 1.5591 4.32181 1.24096C5.21942 0.889587 6.15502 0.713898 7.35657 0.661667C8.70536 0.599938 9.15179 0.585693 12.5047 0.585693C15.8815 0.585693 16.3231 0.599938 17.6577 0.661667C18.8545 0.713898 19.7901 0.894335 20.6924 1.24096C21.5188 1.54961 22.2834 2.05293 22.9103 2.68446C23.5515 3.31124 24.0359 4.05673 24.3589 4.90668C24.7103 5.80412 24.886 6.73954 24.9383 7.94087C24.9953 9.26565 25 9.69775 25 13.0881C25 16.4451 24.9858 16.8915 24.9288 18.2353C24.8765 19.4271 24.696 20.3673 24.3494 21.2695C23.6987 22.9504 22.3642 24.2846 20.6877 24.9304C19.7901 25.2818 18.8545 25.4575 17.6529 25.5097C16.3041 25.5714 15.8577 25.5857 12.5 25.5857ZM12.5047 0.62368C9.15654 0.62368 8.71011 0.637925 7.36132 0.694905C6.16451 0.747137 5.23366 0.927574 4.34081 1.2742C3.49544 1.59234 2.74981 2.07667 2.12766 2.71295C1.50076 3.33023 1.00209 4.09471 0.693389 4.91618C0.346695 5.81836 0.166223 6.74904 0.113982 7.94087C0.0522416 9.2704 0.0379939 9.71675 0.0379939 13.0881C0.0379939 16.4404 0.0522416 16.8867 0.109233 18.2305C0.161474 19.4271 0.341945 20.3578 0.68864 21.2552C1.00209 22.0909 1.48651 22.8317 2.12766 23.4632C2.74981 24.0947 3.50969 24.5885 4.33131 24.8972C5.23366 25.2438 6.16451 25.4242 7.35657 25.4765C8.70061 25.5335 9.14229 25.5477 12.5 25.5477C15.8577 25.5477 16.2994 25.5335 17.6434 25.4765C18.8402 25.4242 19.7711 25.2438 20.6639 24.8972C22.3357 24.2514 23.6607 22.9266 24.3066 21.2552C24.6533 20.353 24.8338 19.4223 24.886 18.2305C24.943 16.8867 24.9573 16.4404 24.9573 13.0881C24.9573 9.69775 24.9525 9.26565 24.8955 7.94562C24.8433 6.74904 24.6628 5.81836 24.3161 4.92093C23.9979 4.07572 23.5135 3.33498 22.8771 2.71295C22.2549 2.08142 21.4951 1.58759 20.6734 1.27895C19.7711 0.932322 18.8402 0.751885 17.6482 0.699653C16.3231 0.637925 15.8767 0.62368 12.5047 0.62368ZM12.5095 23.3397C9.22777 23.3397 8.79084 23.3255 7.46581 23.2685C6.25 23.2163 5.58511 23.0121 5.14343 22.8364C4.59726 22.6322 4.09859 22.3093 3.70441 21.901C3.28647 21.4926 2.96828 21.0083 2.76881 20.4622C2.59783 20.0206 2.39362 19.3559 2.33663 18.1403C2.27489 16.7823 2.26539 16.3834 2.26539 13.0976C2.26539 9.81646 2.27964 9.37961 2.33663 8.05483C2.38887 6.83925 2.59309 6.17449 2.76881 5.73289C2.97302 5.18208 3.29597 4.68826 3.70916 4.29415C4.11759 3.87629 4.60201 3.5629 5.14818 3.35872C5.58986 3.18778 6.25475 2.9836 7.47055 2.92662C8.80509 2.86964 9.24202 2.8554 12.5142 2.8554C15.7912 2.8554 16.2282 2.86964 17.5579 2.92662C18.7737 2.97886 19.4386 3.18303 19.8803 3.35872C20.4265 3.5629 20.9252 3.88579 21.3193 4.29415C21.7373 4.7025 22.0507 5.18683 22.2549 5.73289C22.4259 6.17449 22.6301 6.83925 22.6871 8.05483C22.7441 9.38911 22.7584 9.82596 22.7584 13.0976C22.7584 16.4879 22.7441 16.8393 22.6871 18.1355C22.6349 19.3511 22.4307 20.0159 22.2549 20.4575C21.8323 21.5496 20.9679 22.4186 19.8756 22.8364C19.4339 23.0073 18.769 23.2115 17.5532 23.2685C16.1949 23.3302 15.796 23.3397 12.5095 23.3397ZM12.5142 2.88864C9.24677 2.88864 8.80509 2.90288 7.47055 2.95986C6.2595 3.01209 5.59935 3.21627 5.15767 3.38721C4.62101 3.59139 4.13659 3.90478 3.7329 4.31789C3.32447 4.70725 3.00152 5.20108 2.80205 5.74714C2.63108 6.18873 2.42686 6.84875 2.37462 8.05958C2.31763 9.38436 2.30338 9.82121 2.30338 13.1023C2.30338 16.3882 2.31763 16.787 2.37462 18.145C2.42686 19.3559 2.63108 20.0159 2.80205 20.4575C3.00152 20.9988 3.31497 21.4784 3.72815 21.8867C4.12234 22.2951 4.61626 22.6132 5.15767 22.8127C5.59935 22.9836 6.2595 23.1878 7.47055 23.24C8.79559 23.297 9.23252 23.3112 12.5142 23.3112C15.8007 23.3112 16.1997 23.297 17.5579 23.24C18.769 23.1878 19.4291 22.9836 19.8708 22.8127C20.9536 22.3948 21.8133 21.5354 22.2312 20.4527C22.4022 20.0111 22.6064 19.3511 22.6586 18.1403C22.7156 16.844 22.7299 16.4926 22.7299 13.1023C22.7299 9.70725 22.7156 9.36062 22.6586 8.05958C22.6064 6.84875 22.4022 6.18873 22.2312 5.74714C22.0317 5.20583 21.7183 4.72624 21.3051 4.31789C20.9014 3.90953 20.4075 3.59139 19.8661 3.39196C19.4244 3.22102 18.7642 3.01684 17.5532 2.96461C16.2282 2.90288 15.7912 2.88864 12.5142 2.88864Z" fill="white"/>
<path d="M12.505 6.97302C9.12825 6.97302 6.38794 9.71281 6.38794 13.0889C6.38794 16.465 9.12825 19.2047 12.505 19.2047C15.8817 19.2047 18.622 16.465 18.622 13.0889C18.622 9.71281 15.8817 6.97302 12.505 6.97302ZM12.505 17.0537C10.3156 17.0537 8.53935 15.2779 8.53935 13.0889C8.53935 10.8999 10.3156 9.11927 12.505 9.11927C14.6944 9.11927 16.4706 10.8952 16.4706 13.0889C16.4706 15.2779 14.6944 17.0537 12.505 17.0537Z" fill="white"/>
<path d="M12.5048 19.223C9.12333 19.223 6.36877 16.4689 6.36877 13.0881C6.36877 9.70728 9.12333 6.95325 12.5048 6.95325C15.8863 6.95325 18.6408 9.70728 18.6408 13.0881C18.6408 16.4689 15.8863 19.223 12.5048 19.223ZM12.5048 6.99123C9.14233 6.99123 6.40677 9.72628 6.40677 13.0881C6.40677 16.4499 9.14233 19.185 12.5048 19.185C15.8673 19.185 18.6028 16.4499 18.6028 13.0881C18.6028 9.72628 15.8673 6.99123 12.5048 6.99123ZM12.5048 17.072C10.3059 17.072 8.52018 15.2818 8.52018 13.0881C8.52018 10.8896 10.3106 9.10424 12.5048 9.10424C14.7037 9.10424 16.4894 10.8944 16.4894 13.0881C16.4894 15.2866 14.7037 17.072 12.5048 17.072ZM12.5048 9.13748C10.3249 9.13748 8.55342 10.9086 8.55342 13.0881C8.55342 15.2676 10.3249 17.0387 12.5048 17.0387C14.6847 17.0387 16.4562 15.2676 16.4562 13.0881C16.4514 10.9086 14.6799 9.13748 12.5048 9.13748Z" fill="white"/>
<path d="M19.173 5.45825C18.641 5.45825 18.2089 5.89035 18.2089 6.42216C18.2089 6.95398 18.641 7.38608 19.173 7.38608C19.7049 7.38608 20.1371 6.95398 20.1371 6.42216C20.1371 5.89035 19.7049 5.45825 19.173 5.45825Z" fill="white"/>
<path d="M19.1728 7.40429C18.6314 7.40429 18.1897 6.96269 18.1897 6.42138C18.1897 5.88007 18.6314 5.43848 19.1728 5.43848C19.7142 5.43848 20.1559 5.88007 20.1559 6.42138C20.1559 6.96269 19.7142 7.40429 19.1728 7.40429ZM19.1728 5.47646C18.6504 5.47646 18.2277 5.89907 18.2277 6.42138C18.2277 6.9437 18.6504 7.3663 19.1728 7.3663C19.6952 7.3663 20.1179 6.9437 20.1179 6.42138C20.1179 5.89907 19.6952 5.47646 19.1728 5.47646Z" fill="white"/>
</g>
<defs>
<clipPath id="clip0">
<rect y="0.585693" width="25" height="25" fill="white"/>
</clipPath>
</defs>
</svg>
