<svg width="248" height="69" viewBox="0 0 248 69" fill="none" xmlns="http://www.w3.org/2000/svg">
<g clip-path="url(#clip0)">
<path d="M30.8841 68.7404C29.6883 68.7404 28.4924 68.4341 27.4265 67.8214L3.71735 54.1512C1.58561 52.9207 0.259766 50.6311 0.259766 48.1754V20.8298C0.259766 18.3688 1.58561 16.0792 3.71735 14.8539L27.4265 1.17853C29.5583 -0.0519422 32.2048 -0.0519422 34.3365 1.17853L58.0509 14.8487C60.1826 16.0792 61.5085 18.3688 61.5085 20.8246V48.165C61.5085 50.6207 60.1826 52.9156 58.0509 54.1408L34.3365 67.811C33.2758 68.4341 32.08 68.7404 30.8841 68.7404ZM30.8841 1.7756C29.9534 1.7756 29.0175 2.01442 28.1856 2.49208L4.47646 16.1675C2.81266 17.128 1.78318 18.9088 1.78318 20.8298V48.1702C1.78318 50.086 2.81786 51.872 4.47646 52.8325L28.1908 66.5027C29.8546 67.4632 31.9188 67.4632 33.5826 66.5027L57.297 52.8325C58.9608 51.872 59.9902 50.086 59.9902 48.1702V20.8298C59.9902 18.914 58.9556 17.128 57.297 16.1675L33.5826 2.49727C32.7507 2.01442 31.8148 1.7756 30.8841 1.7756Z" fill="black"/>
<path d="M30.8843 69.0001C29.6261 69.0001 28.3834 68.6678 27.2967 68.0448L3.58757 54.3746C1.37264 53.0974 0 50.7195 0 48.1703V20.8299C0 18.2807 1.37264 15.9028 3.58757 14.6256L27.2967 0.955411C29.5065 -0.316598 32.2569 -0.316598 34.4667 0.955411L58.1811 14.6256C60.3908 15.9028 61.7686 18.2755 61.7686 20.8299V48.1703C61.7686 50.7195 60.396 53.0974 58.1811 54.3746L34.4719 68.0448C33.3852 68.6678 32.1478 69.0001 30.8843 69.0001ZM30.8843 0.519293C29.7353 0.519293 28.5862 0.81523 27.5567 1.4071L3.84754 15.0773C1.79379 16.2611 0.519938 18.4624 0.519938 20.8299V48.1703C0.519938 50.5326 1.79379 52.7392 3.84754 53.9229L27.5567 67.5931C29.5689 68.7561 32.1998 68.7509 34.2067 67.5931L57.9211 53.9229C59.9748 52.7392 61.2487 50.5326 61.2487 48.1703V20.8299C61.2487 18.4624 59.9748 16.2611 57.9211 15.0773L34.2119 1.4071C33.1876 0.81523 32.0334 0.519293 30.8843 0.519293ZM30.8843 67.4841C29.9068 67.4841 28.9293 67.2349 28.0559 66.7313L4.34668 53.0559C2.60489 52.0538 1.51822 50.1796 1.51822 48.1703V20.8299C1.51822 18.8206 2.59969 16.9464 4.34668 15.9443L28.0611 2.26895C29.7716 1.2825 32.0022 1.2825 33.7128 2.26895L57.4271 15.9392C59.1689 16.9412 60.2556 18.8155 60.2556 20.8247V48.1651C60.2556 50.1744 59.1741 52.0486 57.4271 53.0507L33.7128 66.7209C32.8393 67.2297 31.8618 67.4841 30.8843 67.4841ZM30.8843 2.03532C29.9796 2.03532 29.0957 2.27415 28.3158 2.72065L4.60665 16.3909C3.02604 17.3046 2.03816 19.0024 2.03816 20.8247V48.1651C2.03816 49.9875 3.02084 51.6904 4.60665 52.6042L28.321 66.2744C29.9016 67.1881 31.8722 67.1881 33.4528 66.2744L57.1672 52.6042C58.7478 51.6904 59.7357 49.9927 59.7357 48.1651V20.8299C59.7357 19.0024 58.753 17.3046 57.1672 16.396L33.4528 2.72065C32.6729 2.27415 31.789 2.03532 30.8843 2.03532Z" fill="black"/>
<path d="M53.928 30.8813C53.3405 30.4555 52.7998 29.6767 52.2226 28.8512C51.2919 27.5065 50.3249 26.1151 48.9106 25.9438C48.1411 25.8503 47.3352 26.1411 46.4773 26.8264C46.3785 26.3228 46.2797 25.8296 46.1809 25.3363C45.8118 23.5088 45.427 21.619 44.9643 18.13C44.9487 18.0158 44.8811 17.912 44.7823 17.8549C42.661 16.5984 40.9296 14.9474 38.7302 12.8551L38.4391 12.5747C36.6245 10.851 35.0543 10.1501 33.6504 10.4357C32.6574 10.633 31.7527 11.3183 30.8844 12.528C30.0213 11.3183 29.1114 10.633 28.1183 10.4357C26.7093 10.1501 25.1391 10.851 23.3297 12.5747L23.0385 12.8551C20.8444 14.9474 19.1078 16.5984 16.9864 17.8549C16.8876 17.9172 16.8201 18.0158 16.8045 18.13C16.3417 21.619 15.9622 23.5088 15.593 25.3363C15.4942 25.8296 15.3954 26.3176 15.2966 26.8264C14.4387 26.1411 13.6328 25.8503 12.8633 25.9438C11.4491 26.1151 10.482 27.5065 9.55132 28.8512C8.97939 29.6767 8.43865 30.4607 7.84592 30.8813C7.72634 30.9643 7.66914 31.1097 7.69514 31.2551C8.0019 33.0515 8.50624 35.8032 9.32775 38.9442C9.91528 41.1819 10.7056 43.5235 12.593 44.5982C11.8286 45.3874 11.0695 46.3738 10.3312 47.651C10.2792 47.7445 10.2636 47.8587 10.3 47.9625C10.3364 48.0664 10.4092 48.1494 10.5132 48.191C11.4803 48.6063 12.5462 49.5097 13.6796 50.4702C15.7282 52.2043 18.1043 54.2135 20.8756 54.2135C21.5411 54.2135 22.2274 54.0889 22.9397 53.8293C23.0749 54.2187 23.2829 54.5926 23.5896 54.9093C24.6035 55.9424 26.4649 57.23 28.2743 58.4761C29.1634 59.0887 30.0005 59.665 30.6608 60.1634C30.7284 60.2153 30.8116 60.2413 30.8896 60.2413C30.9728 60.2413 31.0508 60.2153 31.1183 60.1634C31.7787 59.665 32.6158 59.0887 33.5049 58.4761C35.309 57.23 37.1756 55.9424 38.1895 54.9093C38.5015 54.5926 38.7042 54.2187 38.8394 53.8293C39.5517 54.0941 40.2433 54.2187 40.914 54.2187C43.6852 54.2187 46.0614 52.2095 48.1099 50.4754C49.2434 49.5149 50.3145 48.6115 51.2763 48.1962C51.3751 48.1546 51.4531 48.0716 51.4895 47.9677C51.5259 47.8639 51.5103 47.7549 51.4583 47.6562C50.72 46.379 49.9557 45.3874 49.1914 44.5982C51.0736 43.5235 51.8639 41.1871 52.4514 38.9494C53.2729 35.8135 53.7772 33.0619 54.084 31.2603C54.1048 31.1097 54.0424 30.9643 53.928 30.8813ZM44.1844 35.2424C42.4686 37.5372 39.7025 39.0948 36.7857 39.4115C36.1669 39.479 35.0907 39.4738 34.0196 39.235C34.7735 38.1187 35.8238 37.1219 36.7597 36.3587C36.7597 36.3587 42.9729 30.9072 45.9522 28.2853C46.2901 30.8293 45.6922 33.228 44.1844 35.2424ZM33.9624 44.8734C33.8064 45.2005 33.5933 45.486 33.3333 45.7352C33.2501 45.8131 33.1617 45.8858 33.0681 45.9585C32.7094 46.2336 32.2882 46.4309 31.8255 46.5451C31.7163 46.5711 31.6019 46.5971 31.4823 46.6126C31.1131 46.6698 30.7284 46.6749 30.3592 46.623C30.2448 46.6075 30.1305 46.5867 30.0161 46.5607C29.5377 46.4517 29.1114 46.2596 28.737 45.9844C28.6486 45.9169 28.5551 45.8442 28.4719 45.7664C28.2015 45.5172 27.9779 45.2212 27.8115 44.8889C27.7595 44.7903 27.718 44.6813 27.6764 44.5722C27.5308 44.1673 27.4528 43.7208 27.4528 43.2327C27.4528 43.0043 27.4736 42.7707 27.5256 42.5163C27.5464 42.3968 27.5776 42.2774 27.6088 42.158C27.7335 41.6959 27.9311 41.1923 28.2327 40.5797C28.3055 40.4291 28.3835 40.2786 28.4615 40.128C28.5343 39.9826 28.6122 39.8372 28.6954 39.6919L29.1946 38.7937C29.3922 38.4406 29.5949 38.0772 29.7977 37.7086L30.0005 37.3348C30.2397 36.8779 30.5672 36.2497 30.8844 35.5124C31.1391 36.0939 31.4355 36.7065 31.7943 37.3815L31.997 37.7553C32.1738 38.0824 32.3506 38.3939 32.5222 38.7054L33.2969 40.1124C33.3749 40.2682 33.4529 40.4187 33.5309 40.5693C33.8428 41.1975 34.0404 41.7167 34.1704 42.1944C34.2016 42.3242 34.2276 42.4384 34.2484 42.5526C34.29 42.7914 34.3108 43.0147 34.3108 43.2379C34.3108 43.7156 34.238 44.1569 34.0976 44.5567C34.056 44.6605 34.0144 44.7695 33.9624 44.8734ZM33.8012 11.1781C33.952 11.147 34.108 11.1314 34.2692 11.1314C35.3142 11.1314 36.5101 11.7856 37.9139 13.1199L38.2051 13.4002C40.3836 15.4718 42.115 17.1228 44.2364 18.4104C44.6887 21.8111 45.0683 23.6801 45.4374 25.4869C45.5622 26.1099 45.687 26.733 45.8118 27.3975C43.0145 29.8637 36.2657 35.7772 36.2709 35.7772C35.309 36.556 34.2276 37.5892 33.4269 38.7573L33.1929 38.3368C33.0213 38.0305 32.8445 37.719 32.6574 37.3763L32.5222 37.1271C34.5863 35.3047 35.829 32.7348 35.933 29.9675C36.0734 26.1774 35.3714 22.3251 33.9 18.8309L32.491 15.4822C32.1114 14.6099 31.7215 13.8675 31.3315 13.2237C32.1322 12.0244 32.9485 11.3494 33.8012 11.1781ZM31.7943 15.7729L33.2033 19.1165C34.6331 22.512 35.3142 26.2553 35.1791 29.9312C35.0855 32.4233 33.9884 34.744 32.1634 36.421C31.7891 35.6837 31.4927 35.014 31.2483 34.3702C31.1911 34.2196 31.0508 34.1262 30.8896 34.1262C30.7284 34.1262 30.588 34.2248 30.536 34.3702C30.2397 35.1542 29.9069 35.8655 29.6209 36.4314C27.7907 34.7544 26.6885 32.4336 26.5949 29.9363C26.4597 26.2553 27.1408 22.5172 28.5707 19.1217L29.9745 15.7833C30.276 15.0928 30.5776 14.4801 30.8844 13.9454C31.1911 14.4749 31.4927 15.0824 31.7943 15.7729ZM16.3313 25.4869C16.6953 23.6801 17.0748 21.8111 17.5272 18.4104C19.6485 17.1228 21.3799 15.477 23.5584 13.4002L23.8496 13.1199C25.4718 11.5779 26.8185 10.9445 27.9675 11.1781C28.8202 11.3494 29.6365 12.0244 30.432 13.2133C30.0421 13.8571 29.6521 14.5995 29.2726 15.477L27.8635 18.8205C26.3921 22.3199 25.6902 26.167 25.8306 29.9571C25.9346 32.7244 27.1824 35.3047 29.2466 37.1219L29.127 37.34C28.9242 37.7086 28.7214 38.072 28.5239 38.4199L28.3367 38.7521C27.536 37.584 26.4545 36.556 25.4978 35.7824C25.4978 35.7824 18.7438 29.8585 15.9466 27.3923C16.0817 26.733 16.2065 26.1099 16.3313 25.4869ZM15.8166 28.2853C18.7958 30.9072 25.0091 36.3587 25.0195 36.3639C25.9502 37.1167 27.0004 38.1135 27.7543 39.2298C26.6833 39.4686 25.607 39.4738 24.9883 39.4063C22.0714 39.0896 19.3054 37.5321 17.5896 35.2372C16.0765 33.228 15.4786 30.8293 15.8166 28.2853ZM10.0609 38.747C9.28095 35.7668 8.78701 33.1345 8.48025 31.3485C9.09377 30.8397 9.61891 30.0817 10.1752 29.2822C11.0123 28.0725 11.8806 26.8212 12.9517 26.6914C13.5756 26.6135 14.2672 26.9147 15.0523 27.6104C15.0783 27.6312 15.1043 27.6571 15.1355 27.6831C14.6155 30.6165 15.2498 33.3889 16.9812 35.6993C18.8218 38.1603 21.7855 39.8269 24.9051 40.1643C25.1547 40.1903 25.4562 40.2111 25.7942 40.2111C26.3505 40.2111 27.0004 40.1591 27.666 40.0293C27.6296 40.102 27.588 40.1799 27.5516 40.2526C27.2812 40.8081 27.0888 41.2806 26.9536 41.7219C26.1893 41.4208 25.3626 41.265 24.5099 41.3221L20.2724 41.535C18.1407 41.67 15.6346 41.8361 13.1649 44.0375C11.5739 43.2535 10.7472 41.3792 10.0609 38.747ZM26.7769 44.1309C26.6885 44.1465 26.6001 44.1621 26.5065 44.1621L15.203 44.4372C14.7611 44.4476 14.3607 44.4061 13.9916 44.3178C16.1545 42.5578 18.3279 42.4176 20.3192 42.293L24.5463 42.0801H24.5515C25.3262 42.0282 26.0801 42.1788 26.7665 42.4643C26.7197 42.7343 26.6937 42.9887 26.6937 43.2379C26.6989 43.5442 26.7249 43.8454 26.7769 44.1309ZM22.7629 53.0609C19.4249 54.333 16.6589 51.9914 14.1632 49.8835C13.1285 49.0061 12.1406 48.1754 11.1943 47.6718C11.8962 46.514 12.6086 45.6262 13.3261 44.9253C13.8304 45.0966 14.3971 45.2005 15.0471 45.2005C15.1043 45.2005 15.1614 45.2005 15.2238 45.1953L26.5273 44.9201C26.6833 44.9149 26.8341 44.8993 26.9848 44.8682C27.0316 44.9928 27.0836 45.1122 27.1408 45.2264C27.2916 45.5327 27.4996 45.8079 27.7284 46.0623L23.9276 49.8991C23.1269 50.709 22.6642 51.9239 22.7629 53.0609ZM23.5169 52.7183C23.5221 51.8876 23.8808 51.0257 24.4631 50.4287L28.2743 46.5867C28.2795 46.5919 28.2847 46.5971 28.2899 46.6023C28.607 46.8359 28.9606 47.0176 29.3454 47.1578C29.1894 47.5679 28.9502 47.9521 28.6122 48.274C28.5862 48.3 26.023 50.8284 25.1287 51.602C24.5723 52.0693 24.0368 52.4431 23.5169 52.7183ZM37.6384 54.3641C36.6817 55.3454 34.7631 56.6693 33.0681 57.8375C32.2726 58.3878 31.5135 58.907 30.8844 59.3743C30.2501 58.907 29.4961 58.3878 28.7006 57.8375C27.0056 56.6693 25.0871 55.3454 24.1304 54.3641C23.8912 54.1149 23.73 53.8242 23.6312 53.5178C24.276 53.1959 24.9415 52.7598 25.6278 52.1679C26.5429 51.3788 29.0438 48.9075 29.1478 48.8088C29.5845 48.3935 29.8913 47.8847 30.0785 47.3447C30.1409 47.3551 30.2033 47.3707 30.2604 47.3758C30.4684 47.4018 30.6764 47.4174 30.8844 47.4174C31.1235 47.4174 31.3627 47.4018 31.6019 47.3603C31.6383 47.3551 31.6695 47.3447 31.7059 47.3395C31.8983 47.8795 32.1998 48.3883 32.6366 48.8036C32.7406 48.9074 35.2415 51.3788 36.1565 52.1679C36.8377 52.7546 37.498 53.1907 38.1427 53.5126C38.0439 53.8242 37.8827 54.1149 37.6384 54.3641ZM36.6557 51.5968C35.7562 50.8232 33.1981 48.2948 33.1669 48.2637C32.8341 47.947 32.595 47.5628 32.439 47.1526C32.8237 47.0124 33.1773 46.8255 33.4997 46.5867L37.3108 50.4287C37.8931 51.0257 38.2519 51.8876 38.2623 52.7131C37.7372 52.4327 37.2016 52.0693 36.6557 51.5968ZM50.59 47.6718C49.6385 48.1702 48.6559 49.0061 47.616 49.8835C45.1151 51.9966 42.3438 54.3381 39.0058 53.0609C39.1046 51.9239 38.6419 50.709 37.8515 49.8991L34.056 46.0675C34.29 45.8079 34.4979 45.5223 34.6539 45.2056C34.7059 45.0966 34.7527 44.9876 34.7943 44.8734C34.9451 44.8993 35.0959 44.9201 35.2519 44.9253L46.5553 45.2005C46.6125 45.2005 46.6749 45.2056 46.7321 45.2056C47.3872 45.2056 47.9539 45.1018 48.4635 44.9253C49.1706 45.621 49.8829 46.514 50.59 47.6718ZM35.0023 42.4643C35.6002 42.2151 36.2449 42.0698 36.9105 42.0698C37.0144 42.0698 37.1184 42.0749 37.2276 42.0801H37.2328L41.4547 42.293C43.4461 42.4176 45.6194 42.5578 47.7772 44.3178C47.408 44.4009 47.0077 44.4476 46.5605 44.4372L35.2571 44.1621C35.1687 44.1569 35.0751 44.1465 34.9867 44.1309C35.0387 43.8454 35.0699 43.5442 35.0699 43.2327C35.0751 42.9783 35.0491 42.7291 35.0023 42.4643ZM51.7131 38.747C51.0216 41.3792 50.2001 43.2483 48.6039 44.0271C46.1394 41.8361 43.6333 41.6648 41.5015 41.535L37.2744 41.3221C36.4165 41.2702 35.5898 41.4208 34.8255 41.7219C34.6851 41.2702 34.4927 40.7925 34.2172 40.2318C34.1808 40.1643 34.1444 40.0968 34.1132 40.0242C34.7735 40.1539 35.4234 40.2059 35.9798 40.2059C36.3177 40.2059 36.6193 40.1903 36.8689 40.1591C39.9885 39.8217 42.9521 38.1499 44.7927 35.6941C46.5241 33.3837 47.1584 30.6113 46.6385 27.6779C46.6645 27.6571 46.6957 27.6311 46.7165 27.6052C47.4236 26.9822 48.0475 26.6758 48.6247 26.6758C48.687 26.6758 48.7546 26.681 48.817 26.6862C49.8933 26.816 50.7564 28.0673 51.5935 29.277C52.1498 30.0765 52.675 30.8345 53.2885 31.3433C52.9817 33.1345 52.493 35.7668 51.7131 38.747Z" fill="black"/>
<path d="M30.8843 60.3607C30.7751 60.3607 30.6659 60.3244 30.5775 60.2569C29.912 59.7533 29.0385 59.151 28.1962 58.5695C26.3868 57.3183 24.515 56.0307 23.496 54.9871C23.2256 54.7068 23.0124 54.3693 22.8616 53.9851C22.1961 54.2187 21.5254 54.333 20.8755 54.333C18.0522 54.333 15.6865 52.3289 13.5963 50.5637C12.4681 49.6084 11.4074 48.7102 10.4611 48.3052C10.3259 48.2481 10.2219 48.1339 10.1803 47.9989C10.1335 47.8639 10.1491 47.7133 10.2219 47.5835C10.8927 46.4257 11.605 45.4549 12.3901 44.6242C10.6067 43.5183 9.80599 41.2598 9.20806 38.9754C8.38136 35.8343 7.88222 33.0774 7.57026 31.2759C7.53906 31.0838 7.61705 30.8917 7.77303 30.7774C8.34496 30.3673 8.8753 29.5989 9.44203 28.7838C10.3935 27.4079 11.371 25.9957 12.8476 25.814C13.6067 25.7206 14.3814 25.975 15.2081 26.598C15.2913 26.1671 15.3745 25.7413 15.4629 25.3156C15.8321 23.4932 16.2168 21.6034 16.6744 18.1145C16.6952 17.9587 16.7836 17.8237 16.9187 17.7458C19.0245 16.4946 20.7559 14.8488 22.9448 12.7616L23.236 12.4813C25.0818 10.7264 26.6884 10.0151 28.1442 10.3111C29.1321 10.5084 30.0316 11.1625 30.8843 12.3099C31.737 11.1625 32.6365 10.5084 33.6243 10.3111C35.0802 10.0151 36.6816 10.7264 38.5326 12.4813L38.8237 12.7616C41.0231 14.854 42.7493 16.4946 44.8498 17.7458C44.985 17.8237 45.0734 17.9639 45.0942 18.1145C45.5569 21.6138 45.9365 23.4932 46.3056 25.3156C46.3888 25.7413 46.4772 26.1619 46.5604 26.598C47.3871 25.9801 48.1618 25.7257 48.9209 25.814C50.3923 25.9905 51.375 27.4079 52.3213 28.7786C52.888 29.5989 53.4236 30.3673 53.9955 30.7774C54.1567 30.8917 54.2347 31.0838 54.1983 31.2759C53.8915 33.0826 53.382 35.8447 52.5657 38.9754C51.9678 41.2546 51.1671 43.5131 49.3889 44.619C50.1792 45.4497 50.8915 46.4206 51.5622 47.5835C51.635 47.7133 51.6506 47.8639 51.6038 47.9989C51.557 48.1391 51.453 48.2481 51.323 48.3052C50.3767 48.7102 49.3109 49.6136 48.1878 50.5637C46.0977 52.3341 43.7267 54.3382 40.9087 54.3382C40.2536 54.3382 39.5828 54.2187 38.9121 53.9851C38.7613 54.3745 38.5482 54.712 38.2778 54.9923C37.2587 56.0359 35.3973 57.3183 33.5879 58.5643C32.6885 59.1874 31.8514 59.7585 31.191 60.2621C31.1026 60.3244 30.9987 60.3607 30.8843 60.3607ZM23.0124 53.6476L23.054 53.7722C23.1944 54.1772 23.4024 54.5251 23.6727 54.8002C24.6762 55.8282 26.5376 57.1106 28.3366 58.3515C29.1841 58.9382 30.0576 59.5404 30.7283 60.044C30.8167 60.1115 30.9415 60.1115 31.0299 60.044C31.7006 59.5404 32.5377 58.9641 33.4216 58.3515C35.231 57.1054 37.0871 55.823 38.0854 54.8002C38.361 54.5199 38.569 54.172 38.7093 53.7671L38.7509 53.6424L38.8757 53.6892C39.5568 53.9436 40.2432 54.0682 40.9035 54.0682C43.628 54.0682 45.9573 52.1005 48.011 50.3612C49.1549 49.3955 50.2312 48.4817 51.2138 48.0612C51.2814 48.0352 51.3282 47.9781 51.3542 47.9106C51.375 47.8431 51.3698 47.7704 51.3334 47.7081C50.6367 46.5088 49.9036 45.5172 49.0873 44.6761L48.9729 44.5567L49.1185 44.4736C50.9175 43.4456 51.7182 41.1923 52.3161 38.9027C53.1324 35.7824 53.6368 33.0255 53.9435 31.2239C53.9591 31.1305 53.9175 31.037 53.8447 30.9799C53.2364 30.5438 52.6905 29.7546 52.1133 28.9239C51.1931 27.5948 50.2468 26.2294 48.8897 26.0632C48.1514 25.9698 47.3871 26.2553 46.5552 26.9199L46.3888 27.0549L46.3472 26.842C46.2484 26.3384 46.1549 25.8452 46.0509 25.3571C45.6817 23.5348 45.297 21.6501 44.8342 18.1404C44.8238 18.0625 44.7822 18.0002 44.7146 17.9587C42.5881 16.6971 40.8515 15.0461 38.6521 12.9537L38.3506 12.663C36.5724 10.9704 35.0438 10.2799 33.6763 10.5551C32.7145 10.7472 31.8358 11.4169 30.9883 12.5955L30.8843 12.7409L30.7803 12.5955C29.938 11.4169 29.0593 10.7472 28.0922 10.5551C26.7248 10.2799 25.1962 10.9652 23.418 12.663L23.1268 12.9433C20.9223 15.0409 19.1857 16.6971 17.0539 17.9587C16.9863 18.0002 16.9447 18.0625 16.9343 18.1404C16.4716 21.6345 16.0868 23.5296 15.7177 25.3571C15.6189 25.8452 15.5201 26.3384 15.4213 26.842L15.3797 27.0549L15.2133 26.9199C14.3814 26.2553 13.6171 25.975 12.8788 26.0632C11.5218 26.2294 10.5755 27.5948 9.66041 28.9187C9.07808 29.7546 8.53214 30.5438 7.92381 30.9799C7.84582 31.037 7.80943 31.1305 7.82502 31.2239C8.13179 33.0203 8.63093 35.7668 9.45763 38.9027C10.0556 41.1923 10.8563 43.4508 12.6604 44.4736L12.806 44.5567L12.6916 44.6761C11.8753 45.5172 11.1422 46.5088 10.4455 47.7029C10.4091 47.7652 10.4039 47.8379 10.4247 47.9054C10.4455 47.9729 10.4975 48.03 10.5651 48.056C11.5478 48.4765 12.6241 49.3851 13.7627 50.3508C15.8217 52.0953 18.1562 54.063 20.8807 54.063C21.541 54.063 22.2221 53.9332 22.898 53.684L23.0124 53.6476ZM30.8843 59.5352L30.8063 59.4781C30.1876 59.0212 29.4492 58.5124 28.6693 57.9725L28.6277 57.9413C26.9327 56.7731 25.009 55.4492 24.0367 54.4524C23.7975 54.2084 23.6207 53.9072 23.5064 53.5542L23.47 53.4452L23.5687 53.3932C24.2343 53.0661 24.8946 52.6145 25.5341 52.0641C26.4544 51.2698 29.0229 48.7361 29.0437 48.7102C29.4492 48.326 29.7508 47.8483 29.9432 47.2928L29.9796 47.1889L30.1616 47.2201C30.198 47.2253 30.2344 47.2357 30.2707 47.2409C30.6971 47.298 31.1442 47.2928 31.5758 47.2253L31.6174 47.2149C31.6382 47.2097 31.659 47.2045 31.6746 47.2045L31.7838 47.1889L31.8202 47.2928C32.0177 47.8483 32.3193 48.3208 32.7145 48.705C32.7404 48.7309 35.2933 51.2594 36.2292 52.0641C36.8688 52.6145 37.5291 53.061 38.1894 53.388L38.2882 53.44L38.2518 53.5438C38.1374 53.8968 37.9606 54.198 37.7215 54.4472C36.7544 55.4388 34.8306 56.768 33.1304 57.9361L33.0992 57.9569C32.3141 58.4968 31.5706 59.0108 30.9467 59.4729L30.8843 59.5352ZM23.7871 53.5801C23.8911 53.8501 24.0315 54.0786 24.2187 54.2707C25.1754 55.2467 27.0835 56.5655 28.7681 57.7285L28.8097 57.7596C29.5636 58.2788 30.2707 58.7668 30.8791 59.2133C31.4874 58.7668 32.2049 58.2736 32.9588 57.7492L32.99 57.7285C34.6798 56.5655 36.588 55.2467 37.5395 54.2707C37.7267 54.0786 37.8722 53.8449 37.9762 53.575C37.3315 53.2427 36.6868 52.8014 36.0629 52.2666C35.1218 51.4567 32.5585 48.923 32.5325 48.8971C32.1321 48.5129 31.8202 48.0404 31.6122 47.4901C31.1546 47.5576 30.6815 47.5628 30.2344 47.5057C30.2084 47.5005 30.1772 47.4953 30.1512 47.4901C29.9432 48.0404 29.6312 48.5129 29.2257 48.9023C29.1997 48.9282 26.6468 51.4567 25.7005 52.2666C25.0818 52.8066 24.437 53.2479 23.7871 53.5801ZM20.8599 53.549C18.2966 53.549 16.0816 51.6747 14.0747 49.977C13.04 49.1048 12.0677 48.2792 11.1266 47.7808L11.007 47.7185L11.0798 47.5991C11.7558 46.4932 12.4577 45.5847 13.2324 44.8266L13.2896 44.7695L13.3676 44.7955C13.9447 44.9928 14.553 45.081 15.2185 45.0603L26.522 44.7851C26.6624 44.7799 26.8028 44.7643 26.9535 44.7384L27.0627 44.7176L27.0991 44.8215C27.1459 44.9409 27.1927 45.0551 27.2447 45.1641C27.3747 45.4341 27.5619 45.6937 27.8114 45.9741L27.8946 46.0675L24.0055 49.9874C23.2204 50.7921 22.794 51.9655 22.8876 53.0506L22.898 53.1492L22.8044 53.1856C22.1389 53.44 21.489 53.549 20.8599 53.549ZM11.3762 47.6251C12.3017 48.1391 13.248 48.9386 14.2463 49.7849C16.664 51.8305 19.404 54.1461 22.6277 52.9779C22.5601 51.8513 23.0124 50.6467 23.8287 49.8108L27.5463 46.0623C27.3227 45.8027 27.1511 45.5483 27.0211 45.2887C26.9795 45.2057 26.9379 45.1122 26.9015 45.0187C26.7716 45.0395 26.652 45.0499 26.5324 45.0551L15.2237 45.3251C14.5582 45.3406 13.9395 45.2628 13.3572 45.0707C12.65 45.7768 12.0001 46.6127 11.3762 47.6251ZM40.9191 53.549C40.2899 53.549 39.6348 53.4348 38.9589 53.1752L38.8653 53.1388L38.8757 53.0402C38.9693 51.9655 38.543 50.8025 37.7682 49.9978L37.7527 49.9822L33.8687 46.0623L33.9519 45.9689C34.2015 45.6885 34.3939 45.4185 34.529 45.1382C34.581 45.0343 34.6226 44.9253 34.6642 44.8163L34.7006 44.7176L34.8098 44.7384C34.9658 44.7695 35.1062 44.7851 35.2466 44.7851L46.55 45.0603C47.2311 45.0759 47.8343 44.9928 48.4114 44.7903L48.4894 44.7643L48.5466 44.8215C49.3265 45.5847 50.0284 46.4932 50.7043 47.5991L50.7771 47.7185L50.6575 47.7808C49.7216 48.274 48.7441 49.0996 47.7147 49.9666C45.6973 51.6747 43.4824 53.549 40.9191 53.549ZM39.1409 52.9675C42.3749 54.1409 45.115 51.8253 47.5327 49.7797C48.5362 48.9282 49.4825 48.1287 50.4079 47.6199C49.784 46.6127 49.1341 45.7716 48.4218 45.0655C47.8394 45.2576 47.2259 45.3458 46.5448 45.3251L35.2414 45.0499C35.1218 45.0447 34.997 45.0343 34.8722 45.0136C34.841 45.0966 34.8046 45.1797 34.7682 45.2576C34.6382 45.5275 34.4614 45.7871 34.2327 46.0571L37.945 49.8057C38.7561 50.6415 39.2085 51.8409 39.1409 52.9675ZM23.3816 52.9364V52.7183C23.3868 51.8564 23.7559 50.9634 24.3643 50.3404L28.2482 46.4206L28.3366 46.4777L28.2742 46.5971L28.3626 46.4984C28.6589 46.7165 29.0021 46.8982 29.3817 47.0332L29.5064 47.0799L29.4596 47.2045C29.2881 47.6562 29.0333 48.0456 28.6953 48.3675C28.2482 48.8088 26.0281 50.9894 25.2065 51.7007C24.6658 52.168 24.1147 52.5522 23.5687 52.8429L23.3816 52.9364ZM28.2846 46.758L24.5514 50.5221C24.0419 51.0465 23.7143 51.7682 23.6519 52.495C24.1147 52.2303 24.5774 51.8928 25.0402 51.4982C25.8565 50.7921 28.0714 48.6167 28.503 48.191C28.7941 47.9106 29.0177 47.5939 29.1685 47.2305C28.8513 47.1007 28.555 46.9449 28.2846 46.758ZM38.387 52.9312L38.1946 52.8273C37.6539 52.5366 37.1079 52.1576 36.5672 51.6903C35.8081 51.0361 33.8999 49.1671 33.1096 48.3935L33.0732 48.3571C32.7405 48.0404 32.4857 47.6458 32.3141 47.1993L32.2673 47.0747L32.3921 47.028C32.7612 46.893 33.1096 46.7113 33.4164 46.4777L33.5256 46.3946L33.6243 46.5296L37.3939 50.3352C38.0022 50.9582 38.3714 51.8461 38.3818 52.7131L38.387 52.9312ZM32.6053 47.2253C32.7612 47.5887 32.9744 47.9054 33.2552 48.165L33.2968 48.2066C34.0819 48.9801 35.9901 50.844 36.7388 51.493C37.1963 51.8876 37.6591 52.2199 38.1166 52.4847C38.0542 51.763 37.7267 51.0413 37.2171 50.5169L33.484 46.7528C33.2136 46.9449 32.9172 47.1059 32.6053 47.2253ZM30.8843 46.7892C30.7023 46.7892 30.5255 46.7788 30.3435 46.7528C30.224 46.7373 30.1044 46.7165 29.99 46.6853C29.496 46.5711 29.0489 46.3686 28.6641 46.0883C28.5705 46.0208 28.477 45.9429 28.3886 45.8598C28.1026 45.595 27.8738 45.2887 27.7023 44.9409C27.6503 44.8422 27.6035 44.7332 27.5619 44.6138C27.4111 44.1984 27.3331 43.7312 27.3331 43.2276C27.3331 42.9939 27.3591 42.7499 27.4059 42.4903C27.4319 42.3657 27.4579 42.2411 27.4891 42.1217C27.6139 41.6492 27.8166 41.1404 28.1182 40.5226C28.191 40.372 28.269 40.2215 28.3522 40.0657C28.4302 39.9203 28.5082 39.775 28.5861 39.6244L29.0853 38.7262C29.2829 38.3731 29.4856 38.0097 29.6884 37.6411L29.8912 37.2673C30.1148 36.8519 30.4423 36.2081 30.7699 35.4553L30.8895 35.1801L31.0091 35.4553C31.2586 36.0316 31.555 36.6391 31.9137 37.314L32.1165 37.6878C32.2881 38.0045 32.4597 38.3108 32.6313 38.612L33.4164 40.0397C33.4996 40.1955 33.5776 40.3513 33.6503 40.5018C33.9623 41.1404 34.1703 41.6648 34.2951 42.1528C34.3263 42.2826 34.3575 42.402 34.3731 42.5215C34.4199 42.7655 34.4406 42.9939 34.4406 43.2276C34.4406 43.7208 34.3679 44.1777 34.2171 44.593C34.1755 44.7072 34.1287 44.8215 34.0767 44.9253C33.9155 45.2628 33.6919 45.5639 33.4216 45.8235C33.3332 45.9066 33.2448 45.9844 33.146 46.0571C32.7716 46.3427 32.3401 46.5452 31.8566 46.6698C31.7422 46.6957 31.6226 46.7217 31.503 46.7424C31.3002 46.7736 31.0922 46.7892 30.8843 46.7892ZM30.8895 35.8343C30.5983 36.4781 30.3175 37.0233 30.12 37.3971L29.9172 37.7761C29.7144 38.1499 29.5116 38.5133 29.3089 38.8664L28.8097 39.7594C28.7317 39.9048 28.6485 40.0501 28.5757 40.1955C28.4978 40.3461 28.4198 40.4966 28.347 40.6472C28.0506 41.2494 27.853 41.7427 27.7334 42.1996C27.7023 42.3138 27.6763 42.428 27.6555 42.5474C27.6087 42.7914 27.5879 43.0147 27.5879 43.2379C27.5879 43.7104 27.6607 44.1465 27.801 44.5307C27.8374 44.6345 27.879 44.7332 27.931 44.8318C28.087 45.1537 28.3002 45.4341 28.5601 45.6781C28.6433 45.7508 28.7265 45.8235 28.8149 45.8858C29.1685 46.1454 29.5844 46.3323 30.042 46.4413C30.1512 46.4673 30.2655 46.488 30.3747 46.5036C30.7387 46.5503 31.1026 46.5503 31.4614 46.4932C31.5758 46.4777 31.685 46.4517 31.7942 46.4257C32.2413 46.3115 32.6417 46.1246 32.99 45.8598C33.0784 45.7923 33.1668 45.7196 33.2448 45.647C33.4944 45.4081 33.6971 45.133 33.8479 44.8215C33.8947 44.7228 33.9415 44.619 33.9779 44.5151C34.1131 44.1309 34.1859 43.7 34.1859 43.2431C34.1859 43.0251 34.1651 42.8122 34.1235 42.5838C34.1027 42.4747 34.0819 42.3605 34.0455 42.2359C33.9259 41.7686 33.7231 41.2598 33.4164 40.6368C33.3436 40.4862 33.2656 40.3357 33.1876 40.1851L32.4181 38.7833C32.2361 38.4614 32.0645 38.1499 31.893 37.8332L31.6902 37.4594C31.3782 36.8675 31.1182 36.3379 30.8895 35.8343ZM15.073 44.567C14.6882 44.567 14.3242 44.5255 13.9603 44.4424L13.7003 44.3853L13.9083 44.2192C16.1128 42.4228 18.3382 42.2878 20.3087 42.1632L24.541 41.9504C25.3105 41.9036 26.0748 42.0334 26.8184 42.3449L26.9119 42.3865L26.8963 42.4903C26.8496 42.7655 26.8288 43.0095 26.8288 43.2379C26.8288 43.5339 26.8548 43.8246 26.9067 44.1102L26.9327 44.24L26.8028 44.2607C26.7092 44.2763 26.6104 44.2919 26.5168 44.2919L15.2133 44.567C15.1613 44.567 15.1198 44.567 15.073 44.567ZM14.2931 44.2452C14.5738 44.2919 14.865 44.3126 15.1665 44.3075H15.2029L26.5064 44.0323C26.548 44.0323 26.5896 44.0271 26.6312 44.0219C26.5896 43.7623 26.5688 43.4975 26.5688 43.2327C26.5688 43.0199 26.5896 42.7914 26.626 42.5422C25.9501 42.2722 25.2585 42.158 24.5618 42.2048L20.3243 42.4176C18.463 42.537 16.3624 42.672 14.2931 44.2452ZM46.6696 44.567C46.6332 44.567 46.5968 44.567 46.5604 44.567H46.5292L35.2569 44.2919C35.1582 44.2867 35.0646 44.2763 34.971 44.2607L34.841 44.24L34.8618 44.1102C34.9138 43.8194 34.9398 43.5235 34.9398 43.2379C34.9398 42.9991 34.919 42.7551 34.8722 42.4851L34.8566 42.3813L34.9502 42.3397C35.6885 42.0282 36.4528 41.8932 37.2327 41.9452L41.4598 42.158C43.4304 42.2826 45.6609 42.4228 47.8602 44.2088L48.0682 44.375L47.8083 44.4321C47.4391 44.5255 47.0699 44.567 46.6696 44.567ZM46.5968 44.3075C46.9036 44.3075 47.1947 44.2919 47.4807 44.24C45.4165 42.6668 43.3108 42.537 41.4494 42.4176L37.2275 42.2099C37.1183 42.2048 37.0143 42.1996 36.9156 42.1996C36.3176 42.1996 35.7249 42.3138 35.1478 42.5474C35.1842 42.7914 35.205 43.0199 35.205 43.2379C35.205 43.4975 35.1842 43.7623 35.1426 44.0271C35.1842 44.0323 35.2258 44.0375 35.2673 44.0375L46.5968 44.3075ZM13.1908 44.188L13.1128 44.1517C11.3242 43.2795 10.5287 41.0522 9.93597 38.7833C9.33285 36.4781 8.81291 34.0535 8.35536 31.3745L8.34496 31.3018L8.40216 31.2551C9.00528 30.7567 9.52002 30.009 10.0712 29.2147C10.9239 27.979 11.8077 26.707 12.9412 26.572C13.6119 26.4889 14.3294 26.8005 15.1458 27.5221L15.2809 27.6415L15.2705 27.7142C14.7558 30.6113 15.3849 33.3474 17.0903 35.6318C18.9101 38.0616 21.8374 39.7127 24.9258 40.0501C25.191 40.0813 25.4925 40.0917 25.8045 40.0917C26.4076 40.0917 27.0471 40.0294 27.6503 39.9099L27.9102 39.858L27.7594 40.154C27.7334 40.2059 27.7023 40.263 27.6763 40.3149C27.4163 40.8497 27.2187 41.3221 27.0835 41.7634L27.0419 41.8984L26.9119 41.8465C26.1268 41.535 25.3261 41.4052 24.5254 41.4571L20.2931 41.67C18.2394 41.7894 15.7021 41.9503 13.2532 44.1309L13.1908 44.188ZM8.62053 31.4005C9.07808 34.0431 9.58761 36.4366 10.1855 38.7158C10.9654 41.6856 11.8233 43.1912 13.1492 43.8817C15.6449 41.6959 18.203 41.535 20.2671 41.4052L24.4994 41.1923C25.2897 41.1404 26.0852 41.2598 26.8652 41.5506C27.0003 41.1352 27.1875 40.6939 27.4267 40.2007C26.5584 40.3461 25.6173 40.372 24.8894 40.2941C21.7334 39.9515 18.7385 38.2641 16.8719 35.7772C15.1354 33.4564 14.4854 30.6736 14.9898 27.7298L14.9638 27.709C14.2047 27.0393 13.5547 26.7485 12.962 26.8212C11.9481 26.9458 11.1006 28.1711 10.2791 29.3549C9.7384 30.1388 9.22366 30.8813 8.62053 31.4005ZM48.583 44.1829L48.5154 44.1257C46.0717 41.9503 43.5292 41.7894 41.491 41.6648L37.2639 41.4519C36.458 41.4 35.6521 41.535 34.867 41.8465L34.737 41.8984L34.6954 41.7634C34.555 41.3169 34.3627 40.8341 34.0975 40.2941L33.8739 39.8528L34.1339 39.9048C34.737 40.0242 35.3765 40.0865 35.9745 40.0865C36.2864 40.0865 36.588 40.0709 36.8532 40.0449C39.9416 39.7127 42.8688 38.0616 44.6886 35.6266C46.3992 33.3422 47.0283 30.6061 46.5084 27.709L46.498 27.6364L46.6332 27.5169C47.4495 26.7953 48.167 26.4941 48.8377 26.5668C49.9712 26.707 50.8551 27.979 51.7078 29.2095C52.2589 30.0038 52.7789 30.7567 53.3768 31.2499L53.434 31.2966L53.4236 31.3693C53.1272 33.093 52.6385 35.7305 51.843 38.7781C51.2502 41.047 50.4495 43.2691 48.6662 44.1413L48.583 44.1829ZM36.9259 41.1768C37.0455 41.1768 37.1599 41.182 37.2795 41.1871L41.5014 41.4C43.5656 41.5298 46.1289 41.6908 48.6194 43.8661C50.2572 43.0095 51.0111 40.886 51.583 38.7054C52.3681 35.7097 52.8517 33.1086 53.148 31.3901C52.5449 30.8709 52.0301 30.1285 51.4894 29.3445C50.6679 28.1607 49.8204 26.9354 48.8013 26.8108C48.219 26.7485 47.5587 27.0289 46.7996 27.6987L46.7736 27.7194C47.2779 30.6632 46.628 33.4409 44.8914 35.7668C43.03 38.2537 40.03 39.9463 36.874 40.2838C36.1512 40.3616 35.205 40.3357 34.3367 40.1903C34.5758 40.6835 34.763 41.1248 34.8982 41.5402C35.5689 41.3014 36.25 41.1768 36.9259 41.1768ZM25.7525 39.5777C25.4561 39.5777 25.191 39.5621 24.9726 39.5413C22.0245 39.2246 19.2221 37.6463 17.4855 35.3255C15.9673 33.2955 15.3485 30.8605 15.6917 28.275L15.7229 28.0361L15.9049 28.1971C18.2654 30.279 22.6641 34.1314 24.385 35.6474C24.8374 36.042 25.1078 36.2808 25.1078 36.2808C25.9137 36.935 27.0471 37.9682 27.8582 39.1675L27.9674 39.3233L27.7802 39.3648C27.0627 39.5206 26.3452 39.5777 25.7525 39.5777ZM15.9153 28.5449C15.6501 30.9695 16.2584 33.254 17.6882 35.1646C19.3832 37.4282 22.1181 38.9702 24.9986 39.2817C25.5653 39.344 26.548 39.3388 27.5359 39.1467C26.7508 38.0409 25.7005 37.0856 24.9414 36.4677C24.9258 36.4522 24.6606 36.2185 24.2187 35.8343C22.5341 34.3598 18.3174 30.658 15.9153 28.5449ZM36.0213 39.5777C35.4285 39.5777 34.7058 39.5206 33.9883 39.3596L33.8011 39.3181L33.9103 39.1623C34.7214 37.963 35.8653 36.9246 36.6764 36.2601C36.6764 36.2601 42.8844 30.8138 45.8637 28.1919L46.0457 28.0309L46.0769 28.2698C46.42 30.8553 45.8013 33.2955 44.2831 35.3203C42.5465 37.6411 39.744 39.2194 36.796 39.5361C36.5828 39.5621 36.3176 39.5777 36.0213 39.5777ZM34.2379 39.1415C35.2206 39.3336 36.2032 39.3388 36.77 39.2765C39.6504 38.965 42.3801 37.4282 44.0751 35.1594C45.5049 33.2488 46.1133 30.9695 45.8481 28.5397C42.8065 31.2187 36.8428 36.447 36.8428 36.447C36.0785 37.0804 35.023 38.0357 34.2379 39.1415ZM28.3574 39.0066L28.2378 38.8352C27.3903 37.5996 26.2412 36.5508 25.4249 35.8914C25.4197 35.8862 18.6657 29.9623 15.8685 27.4962L15.8113 27.4494L15.8269 27.3768C15.9517 26.7122 16.0764 26.0892 16.2012 25.4661V25.461C16.5652 23.6542 16.9447 21.7903 17.3971 18.4L17.4075 18.3377L17.4595 18.3066C19.5704 17.0294 21.2862 15.3887 23.4648 13.3172L23.7559 13.0368C25.4041 11.4689 26.7924 10.8199 27.9882 11.0587C28.8825 11.2404 29.7144 11.9206 30.5359 13.151L30.5827 13.2185L30.5411 13.2912C30.1356 13.9558 29.7612 14.693 29.3869 15.5393L27.9778 18.8829C26.5116 22.3614 25.8149 26.1982 25.9553 29.9675C26.054 32.6621 27.2863 35.2424 29.3297 37.044L29.4076 37.1115L29.2413 37.4178C29.0385 37.7865 28.8409 38.1395 28.6433 38.4874L28.3574 39.0066ZM16.0972 27.3456C18.9309 29.8429 25.5965 35.6889 25.5965 35.6889C26.3868 36.3275 27.4839 37.3296 28.3366 38.5133L28.4198 38.3628C28.6225 38.0045 28.8201 37.6515 29.0177 37.2829L29.0853 37.1531C27.0367 35.3099 25.8045 32.6932 25.7005 29.9623C25.5601 26.1567 26.2672 22.2835 27.7438 18.7686L29.1529 15.4251C29.5168 14.5944 29.886 13.8727 30.2811 13.2185C29.5116 12.0919 28.7473 11.4689 27.9414 11.3027C26.834 11.0795 25.5237 11.7077 23.9379 13.2133L23.6467 13.4937C21.4734 15.5601 19.7576 17.1955 17.6467 18.4883C17.1943 21.8526 16.82 23.7113 16.456 25.5077V25.5129C16.3364 26.1151 16.2168 26.7122 16.0972 27.3456ZM33.4112 39.0014L33.0784 38.3939C32.8964 38.072 32.7249 37.7657 32.5429 37.4334L32.3609 37.0908L32.4389 37.0233C34.477 35.2217 35.7041 32.6465 35.8081 29.9519C35.9485 26.1826 35.2518 22.351 33.7855 18.8673L32.3765 15.5185C32.0073 14.6722 31.6278 13.9402 31.2274 13.2756L31.1858 13.2029L31.2326 13.1354C32.0541 11.905 32.8912 11.2248 33.7803 11.0431C33.9415 11.012 34.1027 10.9964 34.2743 10.9964C35.3557 10.9964 36.5776 11.661 38.0074 13.0212L38.2986 13.2964C40.4771 15.368 42.1981 17.0086 44.3091 18.2858L44.3611 18.3169L44.3715 18.3792C44.8238 21.7851 45.2034 23.649 45.5673 25.4506C45.6921 26.0736 45.8169 26.7018 45.9417 27.3612L45.9573 27.4339L45.9001 27.4806C43.5604 29.5418 38.465 34.012 36.8532 35.4242L36.354 35.8603C35.1738 36.8208 34.1963 37.8384 33.5308 38.8145L33.4112 39.0014ZM32.6885 37.1531L32.7716 37.314C32.9536 37.6463 33.1252 37.9526 33.2916 38.2537L33.4372 38.5133C34.2847 37.3296 35.3921 36.3224 36.1876 35.6786L36.1928 35.6889C36.2656 35.6111 36.4112 35.4813 36.6816 35.2476C38.2778 33.8458 43.3108 29.4327 45.6713 27.3508C45.5517 26.7174 45.4321 26.1151 45.3126 25.5129C44.9486 23.7165 44.5742 21.8578 44.1219 18.4883C42.0161 17.2007 40.2951 15.5652 38.1218 13.4937L37.8306 13.2133C36.2344 11.6973 34.9138 11.0795 33.8323 11.3027C33.0264 11.4637 32.2621 12.0919 31.4926 13.2185C31.8878 13.8727 32.2569 14.5944 32.6157 15.4199L34.0247 18.7738C35.5065 22.2887 36.2084 26.1619 36.0681 29.9675C35.9641 32.6984 34.7318 35.3099 32.6885 37.1531ZM29.6572 36.6391L29.5324 36.5248C27.6503 34.7959 26.5584 32.4596 26.4648 29.9415C26.3296 26.2449 27.0159 22.486 28.451 19.0698L29.8548 15.7314C30.1564 15.0409 30.4631 14.4178 30.7751 13.8831L30.8895 13.6858L31.0039 13.8831C31.3106 14.423 31.6174 15.0409 31.9189 15.7262L33.328 19.0698C34.763 22.4808 35.4493 26.2449 35.3141 29.9415C35.2206 32.4544 34.1339 34.7908 32.2569 36.5196L32.1321 36.6339L32.0541 36.4781C31.6746 35.7253 31.373 35.0503 31.1338 34.4117C31.0974 34.3131 31.0039 34.2508 30.8999 34.2508C30.7959 34.2508 30.7023 34.3131 30.6659 34.4117C30.4163 35.0763 30.1148 35.7513 29.7456 36.4833L29.6572 36.6391ZM30.8843 14.205C30.6191 14.6878 30.3539 15.233 30.094 15.8248L28.6901 19.1632C27.2707 22.5431 26.5896 26.2605 26.7248 29.926C26.8132 32.3194 27.827 34.5415 29.5844 36.2133C29.9172 35.5488 30.1876 34.9309 30.4163 34.3235C30.4943 34.121 30.6815 33.9912 30.8947 33.9912C31.1078 33.9912 31.3002 34.1262 31.373 34.3235C31.5914 34.9102 31.8618 35.528 32.1997 36.2081C33.9519 34.5415 34.9606 32.3194 35.049 29.9312C35.1842 26.2709 34.5082 22.5483 33.0836 19.1684L31.6746 15.8248C31.4146 15.233 31.1494 14.6878 30.8843 14.205Z" fill="black"/>
<path d="M221.322 39.9203H214.464V29.0433V28.737C214.464 27.8388 213.715 27.1119 212.821 27.1119C212.655 27.1119 212.514 27.2469 212.514 27.4183V29.0433V40.9067C212.514 41.1819 212.608 41.4156 212.79 41.6076C212.972 41.7946 213.206 41.8932 213.481 41.8932H221.322C221.597 41.8932 221.831 41.7997 222.024 41.6076C222.211 41.4156 222.31 41.1871 222.31 40.9067C222.31 40.6264 222.216 40.3928 222.024 40.2058C221.837 40.0137 221.603 39.9203 221.322 39.9203Z" fill="black"/>
<path d="M101.455 32.1066C100.748 31.6808 99.906 31.4628 98.9389 31.4628C97.9511 31.4628 97.0724 31.686 96.2977 32.1325C95.523 32.579 94.9146 33.2072 94.4779 34.0068C94.0411 34.8063 93.8228 35.7149 93.8228 36.7221C93.8228 37.7294 94.0515 38.6327 94.5143 39.4271C94.977 40.2215 95.6165 40.8445 96.438 41.291C97.2595 41.7375 98.185 41.9607 99.2249 41.9607C99.8072 41.9607 100.416 41.8517 101.055 41.6388C101.695 41.426 102.225 41.1456 102.656 40.8081C102.859 40.6576 102.958 40.4655 102.958 40.237C102.958 39.9982 102.844 39.7853 102.615 39.5932C102.475 39.4686 102.287 39.4063 102.048 39.4063C101.809 39.4063 101.601 39.4738 101.424 39.614C101.159 39.8165 100.821 39.9878 100.41 40.1228C99.9996 40.263 99.6045 40.3305 99.2249 40.3305C98.263 40.3305 97.4519 40.0605 96.7916 39.5154C96.1261 38.9702 95.7257 38.2589 95.5905 37.3763H102.786C103.041 37.3763 103.249 37.2984 103.41 37.1375C103.572 36.9765 103.655 36.7792 103.655 36.5404C103.655 35.5436 103.468 34.661 103.088 33.8926C102.703 33.1346 102.163 32.5375 101.455 32.1066ZM95.6009 35.8707C95.7517 35.0244 96.1157 34.3495 96.6876 33.8458C97.2595 33.3422 98.0135 33.0878 98.9337 33.0878C99.7656 33.0878 100.442 33.3422 100.961 33.8458C101.476 34.3495 101.793 35.0244 101.908 35.8707H95.6009Z" fill="black"/>
<path d="M247.366 34.0275C246.945 33.228 246.362 32.5997 245.624 32.1481C244.886 31.6912 244.064 31.4679 243.154 31.4679C242.421 31.4679 241.74 31.6185 241.111 31.9196C240.477 32.2207 239.941 32.6465 239.499 33.1864V29.0433V28.737C239.499 27.8388 238.771 27.1119 237.872 27.1119C237.705 27.1119 237.565 27.2469 237.565 27.4183V29.0433V36.7013C237.565 37.6878 237.794 38.5808 238.256 39.3803C238.719 40.1799 239.343 40.8133 240.133 41.2702C240.924 41.7323 241.802 41.9607 242.775 41.9607C243.747 41.9607 244.636 41.7323 245.437 41.2702C246.237 40.8081 246.867 40.1799 247.319 39.3803C247.771 38.5808 248 37.6878 248 36.7013C248 35.7201 247.787 34.8271 247.366 34.0275ZM245.697 38.5185C245.4 39.0636 244.995 39.4894 244.485 39.7957C243.976 40.1072 243.404 40.2578 242.77 40.2578C242.135 40.2578 241.568 40.102 241.054 39.7957C240.544 39.4894 240.144 39.0636 239.853 38.5185C239.561 37.9785 239.416 37.3711 239.416 36.7013C239.416 36.0316 239.561 35.4345 239.853 34.8946C240.144 34.3598 240.544 33.9341 241.054 33.6277C241.563 33.3214 242.135 33.1657 242.77 33.1657C243.399 33.1657 243.971 33.3214 244.485 33.6277C245 33.9393 245.4 34.3598 245.697 34.8946C245.993 35.4293 246.144 36.0316 246.144 36.7013C246.144 37.3711 245.993 37.9785 245.697 38.5185Z" fill="black"/>
<path d="M118.171 31.5406C117.693 31.5406 117.36 31.8314 117.189 32.4129L115.104 38.9183L113.398 32.2623C113.336 32.0495 113.222 31.8729 113.066 31.7431C112.91 31.6133 112.707 31.5458 112.468 31.5458C112.213 31.5458 112.01 31.6133 111.849 31.7431C111.693 31.8781 111.584 32.0495 111.516 32.2623L109.582 38.7885L107.533 32.4129C107.435 32.1118 107.305 31.8885 107.143 31.7483C106.987 31.6081 106.785 31.5406 106.546 31.5406C106.015 31.5406 105.75 31.8054 105.75 32.335C105.75 32.5271 105.776 32.6984 105.828 32.8646L108.63 41.265C108.693 41.4416 108.812 41.5921 108.984 41.7115C109.156 41.8309 109.343 41.8932 109.54 41.8932C109.743 41.8932 109.93 41.8361 110.097 41.7115C110.268 41.5921 110.383 41.4416 110.445 41.265L112.395 34.3962L114.251 41.265C114.303 41.4416 114.412 41.5921 114.584 41.7115C114.755 41.8309 114.948 41.8932 115.161 41.8932C115.364 41.8932 115.546 41.8361 115.712 41.7115C115.878 41.5921 115.988 41.4416 116.05 41.265L118.852 32.8646C118.915 32.6984 118.946 32.5167 118.946 32.3142C118.946 32.0754 118.878 31.8885 118.748 31.7483C118.634 31.6081 118.436 31.5406 118.171 31.5406Z" fill="black"/>
<path d="M186.949 32.1066C186.242 31.6808 185.4 31.4628 184.427 31.4628C183.445 31.4628 182.561 31.686 181.786 32.1325C181.011 32.579 180.403 33.2072 179.966 34.0068C179.529 34.8063 179.311 35.7149 179.311 36.7221C179.311 37.7294 179.54 38.6327 180.003 39.4271C180.465 40.2215 181.105 40.8445 181.926 41.291C182.748 41.7375 183.673 41.9607 184.713 41.9607C185.29 41.9607 185.904 41.8517 186.543 41.6388C187.183 41.426 187.713 41.1456 188.145 40.8081C188.348 40.6576 188.446 40.4655 188.446 40.237C188.446 39.9982 188.332 39.7853 188.103 39.5932C187.963 39.4686 187.776 39.4063 187.536 39.4063C187.297 39.4063 187.089 39.4738 186.913 39.614C186.647 39.8165 186.309 39.9878 185.899 40.1228C185.488 40.263 185.093 40.3305 184.713 40.3305C183.751 40.3305 182.94 40.0605 182.28 39.5154C181.62 38.9702 181.219 38.2589 181.079 37.3763H188.275C188.53 37.3763 188.738 37.2984 188.899 37.1375C189.065 36.9817 189.148 36.7792 189.148 36.5404C189.148 35.5436 188.956 34.661 188.582 33.8926C188.197 33.1346 187.656 32.5375 186.949 32.1066ZM181.094 35.8707C181.245 35.0244 181.609 34.3495 182.186 33.8458C182.758 33.3422 183.507 33.0878 184.432 33.0878C185.264 33.0878 185.94 33.3422 186.46 33.8458C186.975 34.3495 187.292 35.0244 187.406 35.8707H181.094Z" fill="black"/>
<path d="M199.516 32.0131C198.819 31.6341 198.039 31.4472 197.166 31.4472C196.531 31.4472 195.944 31.5562 195.388 31.7795C194.831 32.0027 194.353 32.3091 193.947 32.714L193.869 32.7815C193.693 32.0754 193.084 31.5407 192.32 31.5407C192.154 31.5407 192.013 31.6756 192.013 31.847V32.5063V33.472V40.9431C192.013 41.2183 192.107 41.4519 192.289 41.6337C192.471 41.8154 192.7 41.9088 192.98 41.9088C193.271 41.9088 193.505 41.8154 193.682 41.6337C193.859 41.4519 193.947 41.2183 193.947 40.9431V35.6059C193.947 35.149 194.072 34.744 194.317 34.3754C194.561 34.012 194.904 33.7212 195.341 33.5032C195.778 33.2903 196.261 33.1813 196.791 33.1813C197.701 33.1813 198.429 33.4461 198.98 33.9653C199.531 34.4896 199.802 35.2632 199.802 36.286V40.9379C199.802 41.2131 199.895 41.4468 200.077 41.6285C200.259 41.8102 200.493 41.9036 200.769 41.9036C201.045 41.9036 201.278 41.8102 201.46 41.6285C201.642 41.4468 201.736 41.2131 201.736 40.9379V36.286C201.736 35.2632 201.538 34.391 201.148 33.6641C200.753 32.9425 200.207 32.3921 199.516 32.0131Z" fill="black"/>
<path d="M176.103 27.3871C175.203 27.3871 174.475 28.114 174.475 29.0122V29.3185V33.1865C174.033 32.6465 173.498 32.2208 172.864 31.9197C172.229 31.6133 171.548 31.468 170.815 31.468C169.905 31.468 169.084 31.6964 168.345 32.1481C167.607 32.5998 167.025 33.228 166.604 34.0276C166.182 34.8271 165.969 35.7201 165.969 36.7014C165.969 37.6878 166.198 38.5808 166.65 39.3804C167.103 40.1799 167.732 40.8133 168.533 41.2702C169.333 41.7323 170.222 41.9607 171.195 41.9607C172.167 41.9607 173.046 41.7323 173.836 41.2702C174.626 40.8081 175.25 40.1799 175.713 39.3804C176.176 38.5808 176.404 37.6878 176.404 36.7014V29.3185V27.6935C176.41 27.5221 176.274 27.3871 176.103 27.3871ZM174.117 38.5185C173.826 39.0637 173.425 39.4894 172.916 39.7957C172.406 40.1072 171.834 40.2578 171.2 40.2578C170.565 40.2578 169.999 40.102 169.484 39.7957C168.969 39.4894 168.569 39.0637 168.273 38.5185C167.976 37.9786 167.825 37.3711 167.825 36.7014C167.825 36.0316 167.976 35.4346 168.273 34.8946C168.569 34.3598 168.974 33.9341 169.484 33.6278C169.994 33.3215 170.565 33.1657 171.2 33.1657C171.829 33.1657 172.401 33.3215 172.916 33.6278C173.425 33.9393 173.831 34.3598 174.117 34.8946C174.408 35.4294 174.553 36.0316 174.553 36.7014C174.553 37.3711 174.408 37.9786 174.117 38.5185Z" fill="black"/>
<path d="M231.955 32.1533C231.164 31.6912 230.286 31.4628 229.313 31.4628C228.341 31.4628 227.452 31.6912 226.651 32.1533C225.85 32.6154 225.221 33.2436 224.769 34.0483C224.317 34.8531 224.088 35.7409 224.088 36.7273C224.088 37.7086 224.296 38.6016 224.722 39.4011C225.143 40.2007 225.726 40.8289 226.464 41.2858C227.202 41.7375 228.029 41.9659 228.934 41.9659C229.667 41.9659 230.348 41.8154 230.982 41.5142C231.617 41.2131 232.152 40.7874 232.594 40.2474V40.263V40.2734C232.594 40.3149 232.615 40.3461 232.615 40.3824C232.625 40.4759 232.636 40.5693 232.667 40.6524C232.844 41.3585 233.452 41.8984 234.216 41.8984C234.383 41.8984 234.523 41.7634 234.523 41.5921V40.2578V39.9671V36.7221C234.523 35.7357 234.294 34.8479 233.832 34.0431C233.369 33.2436 232.745 32.6154 231.955 32.1533ZM232.23 38.5289C231.939 39.0637 231.539 39.4894 231.029 39.7957C230.52 40.102 229.948 40.2578 229.313 40.2578C228.679 40.2578 228.112 40.102 227.597 39.7957C227.083 39.4894 226.682 39.0637 226.386 38.5289C226.09 37.9941 225.939 37.3919 225.939 36.7221C225.939 36.0524 226.09 35.4501 226.386 34.905C226.682 34.3598 227.088 33.9393 227.597 33.6278C228.107 33.3215 228.679 33.1657 229.313 33.1657C229.942 33.1657 230.514 33.3215 231.029 33.6278C231.539 33.9393 231.939 34.3598 232.23 34.905C232.521 35.4449 232.667 36.0524 232.667 36.7221C232.667 37.3919 232.521 37.9941 232.23 38.5289Z" fill="black"/>
<path d="M151.843 32.1533C151.052 31.6912 150.174 31.4628 149.201 31.4628C148.229 31.4628 147.34 31.6912 146.539 32.1533C145.739 32.6154 145.11 33.2436 144.657 34.0483C144.205 34.8531 143.976 35.7409 143.976 36.7273C143.976 37.7086 144.184 38.6016 144.61 39.4011C145.032 40.2007 145.614 40.8289 146.352 41.2858C147.091 41.7375 147.917 41.9659 148.822 41.9659C149.555 41.9659 150.236 41.8154 150.87 41.5142C151.505 41.2131 152.04 40.7874 152.482 40.2474V40.263V40.2734C152.482 40.3149 152.503 40.3461 152.503 40.3824C152.513 40.4759 152.524 40.5693 152.555 40.6524C152.732 41.3585 153.34 41.8984 154.104 41.8984C154.271 41.8984 154.411 41.7634 154.411 41.5921V40.2578V39.9671V36.7221C154.411 35.7357 154.182 34.8479 153.72 34.0431C153.257 33.2436 152.633 32.6154 151.843 32.1533ZM152.118 38.5289C151.827 39.0637 151.427 39.4894 150.917 39.7957C150.408 40.102 149.836 40.2578 149.201 40.2578C148.567 40.2578 148 40.102 147.486 39.7957C146.971 39.4894 146.571 39.0637 146.274 38.5289C145.978 37.9941 145.827 37.3919 145.827 36.7221C145.827 36.0524 145.978 35.4501 146.274 34.905C146.571 34.3598 146.976 33.9393 147.486 33.6278C147.995 33.3215 148.567 33.1657 149.201 33.1657C149.831 33.1657 150.403 33.3215 150.917 33.6278C151.427 33.9393 151.827 34.3598 152.118 34.905C152.409 35.4449 152.555 36.0524 152.555 36.7221C152.555 37.3919 152.409 37.9941 152.118 38.5289Z" fill="black"/>
<path d="M164.113 31.7275C163.734 31.525 163.209 31.4264 162.543 31.4264C161.909 31.4264 161.316 31.551 160.76 31.8054C160.203 32.0598 159.735 32.4025 159.356 32.8438H159.33C159.179 32.1013 158.555 31.5354 157.765 31.5354C157.598 31.5354 157.458 31.6704 157.458 31.8417V32.4803V33.4668V40.9379C157.458 41.2546 157.541 41.4882 157.708 41.6492C157.869 41.805 158.103 41.8828 158.41 41.8828C158.727 41.8828 158.961 41.7998 159.117 41.6336C159.273 41.4727 159.356 41.239 159.356 40.9327V35.4189C159.356 34.7128 159.631 34.1521 160.188 33.7368C160.744 33.3214 161.477 33.1138 162.387 33.1138C162.704 33.1138 163.115 33.1605 163.619 33.2487C163.744 33.2747 163.843 33.2851 163.905 33.2851C164.295 33.2851 164.55 33.0826 164.664 32.6828C164.675 32.6465 164.685 32.5842 164.685 32.4959C164.685 32.1844 164.493 31.93 164.113 31.7275Z" fill="black"/>
<path d="M90.2716 27.1068C89.3721 27.1068 88.6286 27.8336 88.6286 28.7318V29.0381V29.5625V30.6113V38.4406L80.3668 27.4702C80.2784 27.3715 80.164 27.2833 80.0237 27.2158C79.8833 27.1483 79.7481 27.1119 79.6077 27.1119C79.3321 27.1119 79.0982 27.2054 78.9162 27.3871C78.7342 27.5688 78.6406 27.8077 78.6406 28.0984V40.9068C78.6406 41.1975 78.729 41.4311 78.9162 41.618C79.0982 41.7998 79.3321 41.8932 79.6077 41.8932C79.8989 41.8932 80.1328 41.7998 80.32 41.6077C80.502 41.4207 80.5956 41.1871 80.5956 40.9068V30.5749L88.8574 41.5454C88.9354 41.6596 89.0446 41.7426 89.1902 41.7998C89.3357 41.8569 89.4761 41.8828 89.6165 41.8828C89.8921 41.8828 90.1261 41.7894 90.308 41.6077C90.49 41.4259 90.5836 41.1871 90.5836 40.8964V30.6113V29.0329V28.0932V27.4131C90.5784 27.2417 90.438 27.1068 90.2716 27.1068Z" fill="black"/>
<path d="M139.931 27.9998C139.468 27.6986 139.011 27.465 138.558 27.3041C137.856 27.0497 137.03 26.925 136.068 26.925C134.716 26.925 133.484 27.2625 132.366 27.9375C131.248 28.6124 130.369 29.5262 129.724 30.6788C129.08 31.8314 128.757 33.1034 128.757 34.4896C128.757 35.8914 129.08 37.1686 129.724 38.3316C130.369 39.4946 131.248 40.4083 132.366 41.0729C133.484 41.7427 134.716 42.0749 136.068 42.0749C137.835 42.0749 139.385 41.5246 140.711 40.4291C140.914 40.263 141.012 40.0345 141.012 39.7282V35.2061C141.012 34.9153 140.919 34.6817 140.737 34.5C140.555 34.3183 140.321 34.2248 140.045 34.2248H136.504C136.213 34.2248 135.974 34.3079 135.792 34.4688C135.61 34.6298 135.517 34.8375 135.517 35.0919C135.517 35.3463 135.61 35.5539 135.792 35.7149C135.974 35.8758 136.213 35.9589 136.504 35.9589H139.12V39.3232C138.147 39.9566 137.128 40.2682 136.068 40.2682C135.085 40.2682 134.175 40.0086 133.348 39.4946C132.522 38.9806 131.861 38.2797 131.378 37.3971C130.894 36.5144 130.65 35.5436 130.65 34.4844C130.65 33.4357 130.894 32.47 131.378 31.5822C131.861 30.6943 132.522 29.9883 133.348 29.4743C134.175 28.9551 135.08 28.7007 136.068 28.7007C136.853 28.7007 137.487 28.7993 137.981 28.9914C138.251 29.1004 138.522 29.2406 138.803 29.4223L138.974 29.5418C139.598 30.0402 140.492 29.9675 141.033 29.412C141.038 29.412 141.043 29.4016 141.049 29.3964C141.08 29.3652 141.111 29.3393 141.137 29.3081C141.236 29.1835 141.215 29.007 141.09 28.9032L139.931 27.9998Z" fill="black"/>
</g>
<defs>
<clipPath id="clip0">
<rect width="248" height="69" fill="white"/>
</clipPath>
</defs>
</svg>
